<?xml version="1.0" standalone="no"?>
<!DOCTYPE svg PUBLIC "-//W3C//DTD SVG 20010904//EN"
 "http://www.w3.org/TR/2001/REC-SVG-20010904/DTD/svg10.dtd">
<svg version="1.0" xmlns="http://www.w3.org/2000/svg"
 width="752.000000pt" height="752.000000pt" viewBox="0 0 752.000000 752.000000"
 preserveAspectRatio="xMidYMid meet">
<metadata>
Created by potrace 1.14, written by Peter Selinger 2001-2017
</metadata>
<g transform="translate(0.000000,752.000000) scale(0.100000,-0.100000)"
fill="#000000" stroke="none">
<path d="M2097 6964 c-6 -7 -285 -11 -973 -14 l-362 -2 -11 -56 c-6 -32 -13
-77 -16 -102 -4 -25 -8 -58 -11 -75 -3 -16 -7 -46 -9 -65 -2 -19 -7 -50 -10
-68 -6 -35 -14 -87 -20 -142 -2 -19 -4 -35 -5 -35 -2 0 -6 -25 -14 -80 -7 -55
-12 -92 -21 -145 -4 -30 -26 -181 -41 -290 -3 -19 -9 -60 -14 -90 -5 -30 -12
-80 -15 -110 -4 -30 -8 -57 -10 -60 -2 -3 -6 -30 -10 -60 -3 -30 -11 -84 -17
-120 -5 -36 -11 -76 -13 -90 -2 -14 -6 -43 -9 -65 -3 -22 -8 -53 -10 -70 -2
-16 -8 -52 -12 -80 -4 -27 -8 -60 -8 -72 -1 -13 -5 -23 -9 -23 -5 0 -6 -4 -3
-9 3 -4 -1 -48 -9 -97 -8 -49 -15 -95 -15 -102 0 -24 0 -24 182 136 27 23 53
42 59 42 6 0 7 5 4 10 -3 6 -2 10 4 10 6 0 24 14 41 30 17 17 33 30 36 30 3 0
15 10 28 23 12 12 47 43 77 68 131 112 238 205 289 249 30 27 66 58 80 70 14
11 34 28 45 38 11 10 85 74 165 142 80 69 150 129 156 135 6 5 23 19 38 30 15
11 40 31 55 45 15 14 51 45 80 70 54 46 68 58 137 120 22 19 71 62 109 95 39
33 75 64 81 70 6 5 42 37 80 70 37 33 76 68 86 78 10 9 22 17 27 17 5 0 11 4
13 9 2 5 30 33 63 62 94 81 175 152 206 179 16 14 46 41 69 60 22 19 53 46 68
60 16 14 48 41 71 60 54 44 111 102 106 110 -4 7 -675 4 -682 -4 -3 -2 -15 -1
-28 4 -13 5 -26 6 -30 2 -9 -9 -49 -9 -56 1 -3 4 -8 4 -12 1z"/>
<path d="M3687 6964 c-1 -1 -24 -4 -52 -7 -27 -3 -79 -12 -114 -22 -67 -17
-194 -72 -199 -87 -2 -4 -8 -8 -13 -8 -6 0 -15 -4 -22 -10 -7 -5 -37 -29 -67
-52 -30 -23 -73 -58 -95 -79 -99 -92 -134 -124 -200 -177 -38 -31 -81 -68 -95
-82 -14 -14 -41 -37 -60 -51 -19 -15 -45 -35 -56 -45 -12 -11 -48 -41 -79 -69
-32 -27 -63 -54 -69 -60 -15 -14 -144 -126 -179 -156 -16 -13 -41 -35 -56 -49
-15 -14 -53 -47 -85 -75 -32 -27 -71 -61 -87 -75 -93 -82 -377 -330 -412 -360
-37 -31 -55 -46 -122 -105 -38 -33 -80 -70 -94 -82 -14 -13 -38 -33 -52 -45
-14 -13 -54 -48 -90 -79 -35 -31 -105 -92 -155 -135 -49 -43 -114 -99 -143
-124 -29 -25 -63 -54 -75 -65 -12 -11 -44 -38 -70 -60 -380 -318 -498 -444
-570 -606 -24 -55 -68 -209 -80 -279 -3 -19 -8 -46 -11 -60 -3 -13 -7 -42 -10
-65 -4 -22 -8 -51 -10 -65 -2 -14 -7 -50 -10 -80 -3 -30 -8 -68 -11 -85 -3
-16 -7 -48 -9 -69 -6 -56 -14 -113 -25 -174 -5 -29 -9 -56 -9 -60 1 -4 0 -9
-1 -12 -2 -6 -4 -18 -14 -105 -4 -32 -9 -62 -11 -65 -1 -3 -6 -30 -9 -61 -4
-31 -8 -65 -10 -75 -2 -11 -7 -41 -10 -69 -4 -27 -11 -77 -16 -110 -5 -33 -12
-82 -15 -110 -3 -27 -8 -61 -10 -75 -8 -43 -13 -83 -20 -141 -3 -31 -7 -65 -9
-76 -3 -11 -7 -44 -10 -74 -4 -30 -8 -67 -10 -84 -24 -179 -25 -239 -2 -298
14 -37 26 -50 62 -68 37 -17 99 -27 124 -19 3 1 16 4 30 6 35 7 105 49 123 76
8 13 28 37 42 53 15 17 39 46 54 65 14 19 36 46 47 60 12 14 41 48 64 75 60
71 172 186 211 215 18 14 69 56 114 93 113 96 262 194 417 273 73 38 135 69
138 69 3 1 25 11 50 22 58 26 193 72 245 83 22 4 51 11 64 14 83 19 516 29
611 14 139 -22 330 -90 480 -170 70 -38 241 -149 266 -172 6 -6 29 -24 50 -41
68 -51 220 -210 299 -311 17 -21 44 -54 60 -74 17 -20 41 -52 55 -70 14 -18
31 -39 38 -46 6 -7 12 -17 12 -23 0 -6 4 -11 8 -11 5 0 23 -20 41 -45 17 -24
37 -50 44 -57 7 -7 35 -42 62 -78 28 -36 56 -71 63 -78 7 -8 25 -30 40 -50 15
-21 29 -39 32 -42 3 -3 27 -34 55 -70 27 -36 52 -67 55 -70 3 -3 21 -25 40
-50 19 -25 39 -50 45 -57 12 -14 19 -23 65 -83 19 -25 40 -52 47 -60 33 -42
111 -141 133 -170 14 -18 54 -69 89 -114 35 -45 103 -133 150 -196 126 -170
180 -215 286 -238 47 -10 2226 -8 2269 2 75 18 163 84 208 157 22 36 43 116
43 164 -1 48 -33 116 -78 166 -17 20 -59 67 -92 105 -33 37 -73 82 -90 100
-16 17 -50 56 -75 85 -25 29 -63 74 -85 99 -22 25 -65 74 -95 109 -60 69 -83
95 -169 186 -31 34 -73 81 -93 106 -20 26 -61 71 -90 102 -29 31 -60 65 -68
75 -8 11 -54 62 -101 113 -48 52 -133 148 -190 214 -56 66 -108 125 -113 132
-6 6 -24 28 -41 49 -16 20 -39 46 -50 58 -11 12 -45 50 -75 86 -51 61 -74 87
-147 166 -15 17 -64 71 -108 119 -44 49 -90 100 -103 113 -12 14 -40 46 -62
72 -22 26 -50 58 -62 72 -22 23 -151 167 -173 192 -5 6 -45 52 -89 101 -43 50
-95 108 -115 131 -20 22 -65 74 -101 115 -36 40 -77 87 -92 102 -16 16 -28 30
-28 33 0 3 -14 20 -55 68 -5 7 -14 19 -20 28 -5 8 -27 41 -48 72 -69 104 -168
309 -199 411 -9 29 -45 163 -52 195 -38 157 -47 439 -22 625 8 57 65 295 74
310 4 6 7 13 8 18 1 4 3 9 4 12 1 3 3 8 5 13 9 35 120 257 135 272 3 3 23 32
45 65 44 65 142 169 220 230 27 22 56 47 65 56 26 25 141 104 195 135 28 15
68 38 90 51 22 12 47 25 55 29 8 3 44 18 80 32 36 14 70 29 75 32 27 18 291
106 307 102 4 -1 27 17 53 41 40 37 47 48 52 95 7 65 -15 113 -67 145 -40 25
38 23 -1056 30 -309 2 -567 7 -573 11 -6 4 -11 3 -11 -3 0 -6 -6 -8 -14 -5
-12 5 -554 12 -559 8z"/>
</g>
</svg>
