<svg width="374" height="161" viewBox="0 0 374 161" fill="none" xmlns="http://www.w3.org/2000/svg">
<path fill-rule="evenodd" clip-rule="evenodd" d="M1 124.808C1 129.28 5.82027 130.06 9.08002 127.53C10.026 126.796 16.3356 118.108 19.9292 115.372C24.0156 112.261 24.2016 111.319 30.5491 107.498L36.8057 104.3C44.4839 100.854 48.7421 100.603 56.9646 100.603C66.2375 100.603 74.7032 105.476 80.073 109.564L82.1057 111.23C84.4818 113.245 86.1005 115.256 88.133 117.529L109.521 144.616C111.903 147.799 114.146 150.474 116.516 153.642C118.942 156.883 120.683 160.5 126.097 160.5H178.77C183.302 160.5 187 157.085 187 152.295C187 149.638 184.111 147.395 182.824 145.792C181.803 144.52 181.36 144.128 180.317 142.958L172.499 133.931C170.776 132.085 168.708 129.996 167.248 128.09C166.328 126.889 165.676 126.442 164.679 125.317C163.582 124.079 163.239 123.489 161.995 122.25C158.325 118.595 147.905 105.658 143.897 101.728L123.441 78.6355C123.363 78.5442 123.139 78.2847 123.061 78.194C122.059 77.0322 121.422 76.2539 120.509 74.9944C110.033 60.5382 108.825 39.4458 119.507 24.699C121.25 22.2928 122.267 21.3722 124.324 19.6549C126.302 18.0034 127.669 16.7535 129.877 15.3449C130.974 14.6449 131.886 14.2325 133.013 13.5483C134.25 12.797 134.914 12.4998 136.327 11.9294C139.858 10.5039 139.02 10.5491 143.429 9.16404C144.88 8.70823 149.142 8.24808 149.142 4.60257C149.142 0.267913 144.152 0.900154 142.147 0.908991C138.442 0.92527 134.726 0.929452 131.021 0.924336L94 0.5C82.6092 0.5 79.2227 7.02547 72.1904 12.3976C71.3582 13.0333 71.2411 13.193 70.4406 13.935C69.5425 14.7672 69.2649 14.8039 68.3879 15.581L46.677 34.5513C45.315 35.589 44.6487 36.4338 43.1476 37.5966L28.667 50.2368C23.5779 54.7561 14.2085 61.9554 11.0343 66.7089C7.30475 72.2939 6.83184 81.5712 5.81467 88.582C5.11053 93.4354 1 120.848 1 124.808V124.808Z" fill="white"/>
<path fill-rule="evenodd" clip-rule="evenodd" d="M1 124.808C1 129.28 5.82027 130.06 9.08002 127.53C10.026 126.796 16.3356 118.108 19.9292 115.372C24.0156 112.261 24.2016 111.319 30.5491 107.498L36.8057 104.3C44.4839 100.854 48.7421 100.603 56.9646 100.603C66.2375 100.603 74.7032 105.476 80.073 109.564L82.1057 111.23C84.4818 113.245 86.1005 115.256 88.133 117.529L109.521 144.616C111.903 147.799 114.146 150.474 116.516 153.642C118.942 156.883 120.683 160.5 126.097 160.5H178.77C183.302 160.5 187 157.085 187 152.295C187 149.638 184.111 147.395 182.824 145.792C181.803 144.52 181.36 144.128 180.317 142.958L172.499 133.931C170.776 132.085 168.708 129.996 167.248 128.09C166.328 126.889 165.676 126.442 164.679 125.317C163.582 124.079 163.239 123.489 161.995 122.25C158.325 118.595 147.905 105.658 143.897 101.728L123.441 78.6355C123.363 78.5442 123.139 78.2847 123.061 78.194C122.059 77.0322 121.422 76.2539 120.509 74.9944C110.033 60.5382 108.825 39.4458 119.507 24.699C121.25 22.2928 122.267 21.3722 124.324 19.6549C126.302 18.0034 127.669 16.7535 129.877 15.3449C130.974 14.6449 131.886 14.2325 133.013 13.5483C134.25 12.797 134.914 12.4998 136.327 11.9294C139.858 10.5039 139.02 10.5491 143.429 9.16404C144.88 8.70823 149.142 8.24808 149.142 4.60257C149.142 0.267913 144.152 0.900154 142.147 0.908991C138.442 0.92527 134.726 0.929452 131.021 0.924336L94 0.5C82.6092 0.5 79.2227 7.02547 72.1904 12.3976C71.3582 13.0333 71.2411 13.193 70.4406 13.935C69.5425 14.7672 69.2649 14.8039 68.3879 15.581L46.677 34.5513C45.315 35.589 44.6487 36.4338 43.1476 37.5966L28.667 50.2368C23.5779 54.7561 14.2085 61.9554 11.0343 66.7089C7.30475 72.2939 6.83184 81.5712 5.81467 88.582C5.11053 93.4354 1 120.848 1 124.808V124.808Z" fill="url(#paint0_linear_1037_19685)"/>
<path fill-rule="evenodd" clip-rule="evenodd" d="M1 124.808C1 129.28 5.82027 130.06 9.08002 127.53C10.026 126.796 16.3356 118.108 19.9292 115.372C24.0156 112.261 24.2016 111.319 30.5491 107.498L36.8057 104.3C44.4839 100.854 48.7421 100.603 56.9646 100.603C66.2375 100.603 74.7032 105.476 80.073 109.564L82.1057 111.23C84.4818 113.245 86.1005 115.256 88.133 117.529L109.521 144.616C111.903 147.799 114.146 150.474 116.516 153.642C118.942 156.883 120.683 160.5 126.097 160.5H178.77C183.302 160.5 187 157.085 187 152.295C187 149.638 184.111 147.395 182.824 145.792C181.803 144.52 181.36 144.128 180.317 142.958L172.499 133.931C170.776 132.085 168.708 129.996 167.248 128.09C166.328 126.889 165.676 126.442 164.679 125.317C163.582 124.079 163.239 123.489 161.995 122.25C158.325 118.595 147.905 105.658 143.897 101.728L123.441 78.6355C123.363 78.5442 123.139 78.2847 123.061 78.194C122.059 77.0322 121.422 76.2539 120.509 74.9944C110.033 60.5382 108.825 39.4458 119.507 24.699C121.25 22.2928 122.267 21.3722 124.324 19.6549C126.302 18.0034 127.669 16.7535 129.877 15.3449C130.974 14.6449 131.886 14.2325 133.013 13.5483C134.25 12.797 134.914 12.4998 136.327 11.9294C139.858 10.5039 139.02 10.5491 143.429 9.16404C144.88 8.70823 149.142 8.24808 149.142 4.60257C149.142 0.267913 144.152 0.900154 142.147 0.908991C138.442 0.92527 134.726 0.929452 131.021 0.924336L94 0.5C82.6092 0.5 79.2227 7.02547 72.1904 12.3976C71.3582 13.0333 71.2411 13.193 70.4406 13.935C69.5425 14.7672 69.2649 14.8039 68.3879 15.581L46.677 34.5513C45.315 35.589 44.6487 36.4338 43.1476 37.5966L28.667 50.2368C23.5779 54.7561 14.2085 61.9554 11.0343 66.7089C7.30475 72.2939 6.83184 81.5712 5.81467 88.582C5.11053 93.4354 1 120.848 1 124.808V124.808Z" stroke="white" stroke-width="0.2" stroke-miterlimit="22.9256"/>
<path fill-rule="evenodd" clip-rule="evenodd" d="M1 124.808C1 129.28 5.82027 130.06 9.08002 127.53C10.026 126.796 16.3356 118.108 19.9292 115.372C24.0156 112.261 24.2016 111.319 30.5491 107.498L36.8057 104.3C44.4839 100.854 48.7421 100.603 56.9646 100.603C66.2375 100.603 74.7032 105.476 80.073 109.564L82.1057 111.23C84.4818 113.245 86.1005 115.256 88.133 117.529L109.521 144.616C111.903 147.799 114.146 150.474 116.516 153.642C118.942 156.883 120.683 160.5 126.097 160.5H178.77C183.302 160.5 187 157.085 187 152.295C187 149.638 184.111 147.395 182.824 145.792C181.803 144.52 181.36 144.128 180.317 142.958L172.499 133.931C170.776 132.085 168.708 129.996 167.248 128.09C166.328 126.889 165.676 126.442 164.679 125.317C163.582 124.079 163.239 123.489 161.995 122.25C158.325 118.595 147.905 105.658 143.897 101.728L123.441 78.6355C123.363 78.5442 123.139 78.2847 123.061 78.194C122.059 77.0322 121.422 76.2539 120.509 74.9944C110.033 60.5382 108.825 39.4458 119.507 24.699C121.25 22.2928 122.267 21.3722 124.324 19.6549C126.302 18.0034 127.669 16.7535 129.877 15.3449C130.974 14.6449 131.886 14.2325 133.013 13.5483C134.25 12.797 134.914 12.4998 136.327 11.9294C139.858 10.5039 139.02 10.5491 143.429 9.16404C144.88 8.70823 149.142 8.24808 149.142 4.60257C149.142 0.267913 144.152 0.900154 142.147 0.908991C138.442 0.92527 134.726 0.929452 131.021 0.924336L94 0.5C82.6092 0.5 79.2227 7.02547 72.1904 12.3976C71.3582 13.0333 71.2411 13.193 70.4406 13.935C69.5425 14.7672 69.2649 14.8039 68.3879 15.581L46.677 34.5513C45.315 35.589 44.6487 36.4338 43.1476 37.5966L28.667 50.2368C23.5779 54.7561 14.2085 61.9554 11.0343 66.7089C7.30475 72.2939 6.83184 81.5712 5.81467 88.582C5.11053 93.4354 1 120.848 1 124.808V124.808Z" stroke="url(#paint1_linear_1037_19685)" stroke-width="0.2" stroke-miterlimit="22.9256"/>
<path fill-rule="evenodd" clip-rule="evenodd" d="M19.1057 0.910225C18.6335 2.93158 18.4714 4.9607 18.1091 7.30128L11.2871 53.8333L39.9848 29.1107C40.8994 28.2231 41.1213 28.2177 42.0268 27.4541L68.8016 4.09653C70.342 2.72864 71.4125 2.26989 72.6013 0.5C54.7442 0.5 37.3437 0.910225 19.1057 0.910225V0.910225Z" fill="url(#paint2_linear_1037_19685)" stroke="url(#paint3_linear_1037_19685)" stroke-width="0.2" stroke-miterlimit="22.9256"/>
<path d="M230.662 109.39H217.971L198.015 83.379V109.39H187V53.879H198.015V78.3831L217.173 53.879H229.864L209.19 80.8414L230.662 109.39ZM262.376 69.7392H272.673V109.39H262.376V104.711C259.29 108.57 254.953 110.5 249.365 110.5C244.044 110.5 239.468 108.491 235.636 104.473C231.858 100.402 229.969 95.4328 229.969 89.5645C229.969 83.6962 231.858 78.753 235.636 74.7352C239.468 70.6644 244.044 68.629 249.365 68.629C254.953 68.629 259.29 70.5587 262.376 74.418V69.7392ZM243.379 97.6532C245.454 99.7151 248.088 100.746 251.281 100.746C254.474 100.746 257.108 99.7151 259.183 97.6532C261.312 95.5387 262.376 92.8424 262.376 89.5645C262.376 86.2866 261.312 83.6169 259.183 81.5551C257.108 79.4405 254.474 78.3831 251.281 78.3831C248.088 78.3831 245.454 79.4405 243.379 81.5551C241.303 83.6169 240.266 86.2866 240.266 89.5645C240.266 92.8424 241.303 95.5387 243.379 97.6532ZM294.543 99.7944H312.263V109.39H280.734V102.57L297.576 79.3347H281.532V69.7392H311.465V76.5591L294.543 99.7944ZM326.023 93.7675C327.407 98.7369 331.158 101.222 337.278 101.222C341.216 101.222 344.196 99.9002 346.218 97.2567L354.519 102.015C350.582 107.672 344.781 110.5 337.118 110.5C330.52 110.5 325.225 108.517 321.234 104.552C317.242 100.587 315.247 95.5914 315.247 89.5645C315.247 83.5904 317.216 78.621 321.154 74.6559C325.092 70.638 330.147 68.629 336.32 68.629C342.174 68.629 346.99 70.638 350.768 74.6559C354.599 78.6737 356.515 83.6435 356.515 89.5645C356.515 90.8861 356.382 92.2873 356.116 93.7675H326.023ZM325.863 85.8374H346.218C345.633 83.1411 344.409 81.132 342.546 79.8105C340.737 78.4889 338.661 77.828 336.32 77.828C333.553 77.828 331.265 78.5417 329.455 79.9691C327.646 81.3438 326.449 83.2997 325.863 85.8374ZM363.703 109.39V51.5H374V109.39H363.703Z" fill="#212020"/>
<defs>
<linearGradient id="paint0_linear_1037_19685" x1="140.355" y1="4.49536" x2="140.356" y2="150.073" gradientUnits="userSpaceOnUse">
<stop stop-color="#B300FF"/>
<stop offset="1" stop-color="#7700FF"/>
</linearGradient>
<linearGradient id="paint1_linear_1037_19685" x1="140.355" y1="4.49536" x2="140.356" y2="150.073" gradientUnits="userSpaceOnUse">
<stop stop-color="#B300FF"/>
<stop offset="1" stop-color="#7700FF"/>
</linearGradient>
<linearGradient id="paint2_linear_1037_19685" x1="41.9442" y1="0.5" x2="41.9442" y2="53.8333" gradientUnits="userSpaceOnUse">
<stop stop-color="#FF5D0E"/>
<stop offset="1" stop-color="#FFC600"/>
</linearGradient>
<linearGradient id="paint3_linear_1037_19685" x1="41.9442" y1="0.5" x2="41.9442" y2="53.8333" gradientUnits="userSpaceOnUse">
<stop stop-color="#FF5D0E"/>
<stop offset="1" stop-color="#FFC600"/>
</linearGradient>
</defs>
</svg>
