<svg width="188" height="228" viewBox="0 0 188 228" fill="none" xmlns="http://www.w3.org/2000/svg">
<path fill-rule="evenodd" clip-rule="evenodd" d="M1 125.308C1 129.78 5.82027 130.56 9.08002 128.03C10.026 127.296 16.3356 118.608 19.9292 115.872C24.0156 112.761 24.2016 111.819 30.5491 107.998L36.8057 104.8C44.4839 101.354 48.7421 101.103 56.9646 101.103C66.2375 101.103 74.7032 105.976 80.073 110.064L82.1057 111.73C84.4818 113.745 86.1005 115.756 88.133 118.029L109.521 145.116C111.903 148.299 114.146 150.974 116.516 154.142C118.942 157.383 120.683 161 126.097 161H178.77C183.302 161 187 157.585 187 152.795C187 150.138 184.111 147.895 182.824 146.292C181.803 145.02 181.36 144.628 180.317 143.458L172.499 134.431C170.776 132.585 168.708 130.496 167.248 128.59C166.328 127.389 165.676 126.942 164.679 125.817C163.582 124.579 163.239 123.989 161.995 122.75C158.325 119.095 147.905 106.158 143.897 102.228L123.441 79.1355C123.363 79.0442 123.139 78.7847 123.061 78.694C122.059 77.5322 121.422 76.7539 120.509 75.4944C110.033 61.0382 108.825 39.9458 119.507 25.199C121.25 22.7928 122.267 21.8722 124.324 20.1549C126.302 18.5034 127.669 17.2535 129.877 15.8449C130.974 15.1449 131.886 14.7325 133.013 14.0483C134.25 13.297 134.914 12.9998 136.327 12.4294C139.858 11.0039 139.02 11.0491 143.429 9.66404C144.88 9.20823 149.142 8.74808 149.142 5.10257C149.142 0.767913 144.152 1.40015 142.147 1.40899C138.442 1.42527 134.726 1.42945 131.021 1.42434L94 1C82.6092 1 79.2227 7.52547 72.1904 12.8976C71.3582 13.5333 71.2411 13.693 70.4406 14.435C69.5425 15.2672 69.2649 15.3039 68.3879 16.081L46.677 35.0513C45.315 36.089 44.6487 36.9338 43.1476 38.0966L28.667 50.7368C23.5779 55.2561 14.2085 62.4554 11.0343 67.2089C7.30475 72.7939 6.83184 82.0712 5.81467 89.082C5.11053 93.9354 1 121.348 1 125.308V125.308Z" fill="white"/>
<path fill-rule="evenodd" clip-rule="evenodd" d="M1 125.308C1 129.78 5.82027 130.56 9.08002 128.03C10.026 127.296 16.3356 118.608 19.9292 115.872C24.0156 112.761 24.2016 111.819 30.5491 107.998L36.8057 104.8C44.4839 101.354 48.7421 101.103 56.9646 101.103C66.2375 101.103 74.7032 105.976 80.073 110.064L82.1057 111.73C84.4818 113.745 86.1005 115.756 88.133 118.029L109.521 145.116C111.903 148.299 114.146 150.974 116.516 154.142C118.942 157.383 120.683 161 126.097 161H178.77C183.302 161 187 157.585 187 152.795C187 150.138 184.111 147.895 182.824 146.292C181.803 145.02 181.36 144.628 180.317 143.458L172.499 134.431C170.776 132.585 168.708 130.496 167.248 128.59C166.328 127.389 165.676 126.942 164.679 125.817C163.582 124.579 163.239 123.989 161.995 122.75C158.325 119.095 147.905 106.158 143.897 102.228L123.441 79.1355C123.363 79.0442 123.139 78.7847 123.061 78.694C122.059 77.5322 121.422 76.7539 120.509 75.4944C110.033 61.0382 108.825 39.9458 119.507 25.199C121.25 22.7928 122.267 21.8722 124.324 20.1549C126.302 18.5034 127.669 17.2535 129.877 15.8449C130.974 15.1449 131.886 14.7325 133.013 14.0483C134.25 13.297 134.914 12.9998 136.327 12.4294C139.858 11.0039 139.02 11.0491 143.429 9.66404C144.88 9.20823 149.142 8.74808 149.142 5.10257C149.142 0.767913 144.152 1.40015 142.147 1.40899C138.442 1.42527 134.726 1.42945 131.021 1.42434L94 1C82.6092 1 79.2227 7.52547 72.1904 12.8976C71.3582 13.5333 71.2411 13.693 70.4406 14.435C69.5425 15.2672 69.2649 15.3039 68.3879 16.081L46.677 35.0513C45.315 36.089 44.6487 36.9338 43.1476 38.0966L28.667 50.7368C23.5779 55.2561 14.2085 62.4554 11.0343 67.2089C7.30475 72.7939 6.83184 82.0712 5.81467 89.082C5.11053 93.9354 1 121.348 1 125.308V125.308Z" fill="url(#paint0_linear_1037_19696)"/>
<path fill-rule="evenodd" clip-rule="evenodd" d="M1 125.308C1 129.78 5.82027 130.56 9.08002 128.03C10.026 127.296 16.3356 118.608 19.9292 115.872C24.0156 112.761 24.2016 111.819 30.5491 107.998L36.8057 104.8C44.4839 101.354 48.7421 101.103 56.9646 101.103C66.2375 101.103 74.7032 105.976 80.073 110.064L82.1057 111.73C84.4818 113.745 86.1005 115.756 88.133 118.029L109.521 145.116C111.903 148.299 114.146 150.974 116.516 154.142C118.942 157.383 120.683 161 126.097 161H178.77C183.302 161 187 157.585 187 152.795C187 150.138 184.111 147.895 182.824 146.292C181.803 145.02 181.36 144.628 180.317 143.458L172.499 134.431C170.776 132.585 168.708 130.496 167.248 128.59C166.328 127.389 165.676 126.942 164.679 125.817C163.582 124.579 163.239 123.989 161.995 122.75C158.325 119.095 147.905 106.158 143.897 102.228L123.441 79.1355C123.363 79.0442 123.139 78.7847 123.061 78.694C122.059 77.5322 121.422 76.7539 120.509 75.4944C110.033 61.0382 108.825 39.9458 119.507 25.199C121.25 22.7928 122.267 21.8722 124.324 20.1549C126.302 18.5034 127.669 17.2535 129.877 15.8449C130.974 15.1449 131.886 14.7325 133.013 14.0483C134.25 13.297 134.914 12.9998 136.327 12.4294C139.858 11.0039 139.02 11.0491 143.429 9.66404C144.88 9.20823 149.142 8.74808 149.142 5.10257C149.142 0.767913 144.152 1.40015 142.147 1.40899C138.442 1.42527 134.726 1.42945 131.021 1.42434L94 1C82.6092 1 79.2227 7.52547 72.1904 12.8976C71.3582 13.5333 71.2411 13.693 70.4406 14.435C69.5425 15.2672 69.2649 15.3039 68.3879 16.081L46.677 35.0513C45.315 36.089 44.6487 36.9338 43.1476 38.0966L28.667 50.7368C23.5779 55.2561 14.2085 62.4554 11.0343 67.2089C7.30475 72.7939 6.83184 82.0712 5.81467 89.082C5.11053 93.9354 1 121.348 1 125.308V125.308Z" stroke="white" stroke-width="0.2" stroke-miterlimit="22.9256"/>
<path fill-rule="evenodd" clip-rule="evenodd" d="M1 125.308C1 129.78 5.82027 130.56 9.08002 128.03C10.026 127.296 16.3356 118.608 19.9292 115.872C24.0156 112.761 24.2016 111.819 30.5491 107.998L36.8057 104.8C44.4839 101.354 48.7421 101.103 56.9646 101.103C66.2375 101.103 74.7032 105.976 80.073 110.064L82.1057 111.73C84.4818 113.745 86.1005 115.756 88.133 118.029L109.521 145.116C111.903 148.299 114.146 150.974 116.516 154.142C118.942 157.383 120.683 161 126.097 161H178.77C183.302 161 187 157.585 187 152.795C187 150.138 184.111 147.895 182.824 146.292C181.803 145.02 181.36 144.628 180.317 143.458L172.499 134.431C170.776 132.585 168.708 130.496 167.248 128.59C166.328 127.389 165.676 126.942 164.679 125.817C163.582 124.579 163.239 123.989 161.995 122.75C158.325 119.095 147.905 106.158 143.897 102.228L123.441 79.1355C123.363 79.0442 123.139 78.7847 123.061 78.694C122.059 77.5322 121.422 76.7539 120.509 75.4944C110.033 61.0382 108.825 39.9458 119.507 25.199C121.25 22.7928 122.267 21.8722 124.324 20.1549C126.302 18.5034 127.669 17.2535 129.877 15.8449C130.974 15.1449 131.886 14.7325 133.013 14.0483C134.25 13.297 134.914 12.9998 136.327 12.4294C139.858 11.0039 139.02 11.0491 143.429 9.66404C144.88 9.20823 149.142 8.74808 149.142 5.10257C149.142 0.767913 144.152 1.40015 142.147 1.40899C138.442 1.42527 134.726 1.42945 131.021 1.42434L94 1C82.6092 1 79.2227 7.52547 72.1904 12.8976C71.3582 13.5333 71.2411 13.693 70.4406 14.435C69.5425 15.2672 69.2649 15.3039 68.3879 16.081L46.677 35.0513C45.315 36.089 44.6487 36.9338 43.1476 38.0966L28.667 50.7368C23.5779 55.2561 14.2085 62.4554 11.0343 67.2089C7.30475 72.7939 6.83184 82.0712 5.81467 89.082C5.11053 93.9354 1 121.348 1 125.308V125.308Z" stroke="url(#paint1_linear_1037_19696)" stroke-width="0.2" stroke-miterlimit="22.9256"/>
<path fill-rule="evenodd" clip-rule="evenodd" d="M19.1057 1.41022C18.6335 3.43158 18.4714 5.4607 18.1091 7.80128L11.2871 54.3333L39.9848 29.6107C40.8994 28.7231 41.1213 28.7177 42.0268 27.9541L68.8016 4.59653C70.342 3.22864 71.4125 2.76989 72.6013 1C54.7442 1 37.3437 1.41022 19.1057 1.41022V1.41022Z" fill="url(#paint2_linear_1037_19696)" stroke="url(#paint3_linear_1037_19696)" stroke-width="0.2" stroke-miterlimit="22.9256"/>
<path d="M44.6624 226.89H31.9708L12.0154 200.879V226.89H1V171.379H12.0154V195.883L31.1726 171.379H43.8642L23.1904 198.341L44.6624 226.89ZM76.3764 187.239H86.6734V226.89H76.3764V222.211C73.2901 226.07 68.953 228 63.3654 228C58.0441 228 53.4676 225.991 49.6361 221.973C45.8582 217.902 43.9688 212.933 43.9688 207.065C43.9688 201.196 45.8582 196.253 49.6361 192.235C53.4676 188.164 58.0441 186.129 63.3654 186.129C68.953 186.129 73.2901 188.059 76.3764 191.918V187.239ZM57.3788 215.153C59.4542 217.215 62.0883 218.246 65.2812 218.246C68.474 218.246 71.1081 217.215 73.1835 215.153C75.3123 213.039 76.3764 210.342 76.3764 207.065C76.3764 203.787 75.3123 201.117 73.1835 199.055C71.1081 196.941 68.474 195.883 65.2812 195.883C62.0883 195.883 59.4542 196.941 57.3788 199.055C55.3035 201.117 54.2658 203.787 54.2658 207.065C54.2658 210.342 55.3035 213.039 57.3788 215.153ZM108.543 217.294H126.263V226.89H94.7338V220.07L111.576 196.835H95.532V187.239H125.465V194.059L108.543 217.294ZM140.023 211.267C141.407 216.237 145.158 218.722 151.278 218.722C155.216 218.722 158.196 217.4 160.218 214.757L168.519 219.515C164.582 225.172 158.781 228 151.118 228C144.52 228 139.225 226.017 135.234 222.052C131.242 218.087 129.247 213.091 129.247 207.065C129.247 201.09 131.216 196.121 135.154 192.156C139.092 188.138 144.147 186.129 150.32 186.129C156.174 186.129 160.99 188.138 164.768 192.156C168.599 196.174 170.515 201.144 170.515 207.065C170.515 208.386 170.382 209.787 170.116 211.267H140.023ZM139.863 203.337H160.218C159.633 200.641 158.409 198.632 156.546 197.31C154.737 195.989 152.661 195.328 150.32 195.328C147.553 195.328 145.265 196.042 143.455 197.469C141.646 198.844 140.449 200.8 139.863 203.337ZM177.703 226.89V169H188V226.89H177.703Z" fill="#FAF9F9"/>
<defs>
<linearGradient id="paint0_linear_1037_19696" x1="140.355" y1="4.99536" x2="140.356" y2="150.573" gradientUnits="userSpaceOnUse">
<stop stop-color="#B300FF"/>
<stop offset="1" stop-color="#7700FF"/>
</linearGradient>
<linearGradient id="paint1_linear_1037_19696" x1="140.355" y1="4.99536" x2="140.356" y2="150.573" gradientUnits="userSpaceOnUse">
<stop stop-color="#B300FF"/>
<stop offset="1" stop-color="#7700FF"/>
</linearGradient>
<linearGradient id="paint2_linear_1037_19696" x1="41.9442" y1="1" x2="41.9442" y2="54.3333" gradientUnits="userSpaceOnUse">
<stop stop-color="#FF5D0E"/>
<stop offset="1" stop-color="#FFC600"/>
</linearGradient>
<linearGradient id="paint3_linear_1037_19696" x1="41.9442" y1="1" x2="41.9442" y2="54.3333" gradientUnits="userSpaceOnUse">
<stop stop-color="#FF5D0E"/>
<stop offset="1" stop-color="#FFC600"/>
</linearGradient>
</defs>
</svg>
