<svg width="188" height="162" viewBox="0 0 188 162" fill="none" xmlns="http://www.w3.org/2000/svg">
<path fill-rule="evenodd" clip-rule="evenodd" d="M1 125.308C1 129.78 5.82027 130.56 9.08002 128.03C10.026 127.296 16.3356 118.608 19.9292 115.872C24.0156 112.761 24.2016 111.819 30.5491 107.998L36.8057 104.8C44.4839 101.354 48.7421 101.103 56.9646 101.103C66.2375 101.103 74.7032 105.976 80.073 110.064L82.1057 111.73C84.4818 113.745 86.1005 115.756 88.133 118.029L109.521 145.116C111.903 148.299 114.146 150.974 116.516 154.142C118.942 157.383 120.683 161 126.097 161H178.77C183.302 161 187 157.585 187 152.795C187 150.138 184.111 147.895 182.824 146.292C181.803 145.02 181.36 144.628 180.317 143.458L172.499 134.431C170.776 132.585 168.708 130.496 167.248 128.59C166.328 127.389 165.676 126.942 164.679 125.817C163.582 124.579 163.239 123.989 161.995 122.75C158.325 119.095 147.905 106.158 143.897 102.228L123.441 79.1355C123.363 79.0442 123.139 78.7847 123.061 78.694C122.059 77.5322 121.422 76.7539 120.509 75.4944C110.033 61.0382 108.825 39.9458 119.507 25.199C121.25 22.7928 122.267 21.8722 124.324 20.1549C126.302 18.5034 127.669 17.2535 129.877 15.8449C130.974 15.1449 131.886 14.7325 133.013 14.0483C134.25 13.297 134.914 12.9998 136.327 12.4294C139.858 11.0039 139.02 11.0491 143.429 9.66404C144.88 9.20823 149.142 8.74808 149.142 5.10257C149.142 0.767913 144.152 1.40015 142.147 1.40899C138.442 1.42527 134.726 1.42945 131.021 1.42434L94 1C82.6092 1 79.2227 7.52547 72.1904 12.8976C71.3582 13.5333 71.2411 13.693 70.4406 14.435C69.5425 15.2672 69.2649 15.3039 68.3879 16.081L46.677 35.0513C45.315 36.089 44.6487 36.9338 43.1476 38.0966L28.667 50.7368C23.5779 55.2561 14.2085 62.4554 11.0343 67.2089C7.30475 72.7939 6.83184 82.0712 5.81467 89.082C5.11053 93.9354 1 121.348 1 125.308V125.308Z" fill="white"/>
<path fill-rule="evenodd" clip-rule="evenodd" d="M1 125.308C1 129.78 5.82027 130.56 9.08002 128.03C10.026 127.296 16.3356 118.608 19.9292 115.872C24.0156 112.761 24.2016 111.819 30.5491 107.998L36.8057 104.8C44.4839 101.354 48.7421 101.103 56.9646 101.103C66.2375 101.103 74.7032 105.976 80.073 110.064L82.1057 111.73C84.4818 113.745 86.1005 115.756 88.133 118.029L109.521 145.116C111.903 148.299 114.146 150.974 116.516 154.142C118.942 157.383 120.683 161 126.097 161H178.77C183.302 161 187 157.585 187 152.795C187 150.138 184.111 147.895 182.824 146.292C181.803 145.02 181.36 144.628 180.317 143.458L172.499 134.431C170.776 132.585 168.708 130.496 167.248 128.59C166.328 127.389 165.676 126.942 164.679 125.817C163.582 124.579 163.239 123.989 161.995 122.75C158.325 119.095 147.905 106.158 143.897 102.228L123.441 79.1355C123.363 79.0442 123.139 78.7847 123.061 78.694C122.059 77.5322 121.422 76.7539 120.509 75.4944C110.033 61.0382 108.825 39.9458 119.507 25.199C121.25 22.7928 122.267 21.8722 124.324 20.1549C126.302 18.5034 127.669 17.2535 129.877 15.8449C130.974 15.1449 131.886 14.7325 133.013 14.0483C134.25 13.297 134.914 12.9998 136.327 12.4294C139.858 11.0039 139.02 11.0491 143.429 9.66404C144.88 9.20823 149.142 8.74808 149.142 5.10257C149.142 0.767913 144.152 1.40015 142.147 1.40899C138.442 1.42527 134.726 1.42945 131.021 1.42434L94 1C82.6092 1 79.2227 7.52547 72.1904 12.8976C71.3582 13.5333 71.2411 13.693 70.4406 14.435C69.5425 15.2672 69.2649 15.3039 68.3879 16.081L46.677 35.0513C45.315 36.089 44.6487 36.9338 43.1476 38.0966L28.667 50.7368C23.5779 55.2561 14.2085 62.4554 11.0343 67.2089C7.30475 72.7939 6.83184 82.0712 5.81467 89.082C5.11053 93.9354 1 121.348 1 125.308V125.308Z" fill="url(#paint0_linear_1037_19689)"/>
<path fill-rule="evenodd" clip-rule="evenodd" d="M1 125.308C1 129.78 5.82027 130.56 9.08002 128.03C10.026 127.296 16.3356 118.608 19.9292 115.872C24.0156 112.761 24.2016 111.819 30.5491 107.998L36.8057 104.8C44.4839 101.354 48.7421 101.103 56.9646 101.103C66.2375 101.103 74.7032 105.976 80.073 110.064L82.1057 111.73C84.4818 113.745 86.1005 115.756 88.133 118.029L109.521 145.116C111.903 148.299 114.146 150.974 116.516 154.142C118.942 157.383 120.683 161 126.097 161H178.77C183.302 161 187 157.585 187 152.795C187 150.138 184.111 147.895 182.824 146.292C181.803 145.02 181.36 144.628 180.317 143.458L172.499 134.431C170.776 132.585 168.708 130.496 167.248 128.59C166.328 127.389 165.676 126.942 164.679 125.817C163.582 124.579 163.239 123.989 161.995 122.75C158.325 119.095 147.905 106.158 143.897 102.228L123.441 79.1355C123.363 79.0442 123.139 78.7847 123.061 78.694C122.059 77.5322 121.422 76.7539 120.509 75.4944C110.033 61.0382 108.825 39.9458 119.507 25.199C121.25 22.7928 122.267 21.8722 124.324 20.1549C126.302 18.5034 127.669 17.2535 129.877 15.8449C130.974 15.1449 131.886 14.7325 133.013 14.0483C134.25 13.297 134.914 12.9998 136.327 12.4294C139.858 11.0039 139.02 11.0491 143.429 9.66404C144.88 9.20823 149.142 8.74808 149.142 5.10257C149.142 0.767913 144.152 1.40015 142.147 1.40899C138.442 1.42527 134.726 1.42945 131.021 1.42434L94 1C82.6092 1 79.2227 7.52547 72.1904 12.8976C71.3582 13.5333 71.2411 13.693 70.4406 14.435C69.5425 15.2672 69.2649 15.3039 68.3879 16.081L46.677 35.0513C45.315 36.089 44.6487 36.9338 43.1476 38.0966L28.667 50.7368C23.5779 55.2561 14.2085 62.4554 11.0343 67.2089C7.30475 72.7939 6.83184 82.0712 5.81467 89.082C5.11053 93.9354 1 121.348 1 125.308V125.308Z" stroke="white" stroke-width="0.2" stroke-miterlimit="22.9256"/>
<path fill-rule="evenodd" clip-rule="evenodd" d="M1 125.308C1 129.78 5.82027 130.56 9.08002 128.03C10.026 127.296 16.3356 118.608 19.9292 115.872C24.0156 112.761 24.2016 111.819 30.5491 107.998L36.8057 104.8C44.4839 101.354 48.7421 101.103 56.9646 101.103C66.2375 101.103 74.7032 105.976 80.073 110.064L82.1057 111.73C84.4818 113.745 86.1005 115.756 88.133 118.029L109.521 145.116C111.903 148.299 114.146 150.974 116.516 154.142C118.942 157.383 120.683 161 126.097 161H178.77C183.302 161 187 157.585 187 152.795C187 150.138 184.111 147.895 182.824 146.292C181.803 145.02 181.36 144.628 180.317 143.458L172.499 134.431C170.776 132.585 168.708 130.496 167.248 128.59C166.328 127.389 165.676 126.942 164.679 125.817C163.582 124.579 163.239 123.989 161.995 122.75C158.325 119.095 147.905 106.158 143.897 102.228L123.441 79.1355C123.363 79.0442 123.139 78.7847 123.061 78.694C122.059 77.5322 121.422 76.7539 120.509 75.4944C110.033 61.0382 108.825 39.9458 119.507 25.199C121.25 22.7928 122.267 21.8722 124.324 20.1549C126.302 18.5034 127.669 17.2535 129.877 15.8449C130.974 15.1449 131.886 14.7325 133.013 14.0483C134.25 13.297 134.914 12.9998 136.327 12.4294C139.858 11.0039 139.02 11.0491 143.429 9.66404C144.88 9.20823 149.142 8.74808 149.142 5.10257C149.142 0.767913 144.152 1.40015 142.147 1.40899C138.442 1.42527 134.726 1.42945 131.021 1.42434L94 1C82.6092 1 79.2227 7.52547 72.1904 12.8976C71.3582 13.5333 71.2411 13.693 70.4406 14.435C69.5425 15.2672 69.2649 15.3039 68.3879 16.081L46.677 35.0513C45.315 36.089 44.6487 36.9338 43.1476 38.0966L28.667 50.7368C23.5779 55.2561 14.2085 62.4554 11.0343 67.2089C7.30475 72.7939 6.83184 82.0712 5.81467 89.082C5.11053 93.9354 1 121.348 1 125.308V125.308Z" stroke="url(#paint1_linear_1037_19689)" stroke-width="0.2" stroke-miterlimit="22.9256"/>
<path fill-rule="evenodd" clip-rule="evenodd" d="M19.1057 1.41022C18.6335 3.43158 18.4714 5.4607 18.1091 7.80128L11.2871 54.3333L39.9848 29.6107C40.8994 28.7231 41.1213 28.7177 42.0268 27.9541L68.8016 4.59653C70.342 3.22864 71.4125 2.76989 72.6013 1C54.7442 1 37.3437 1.41022 19.1057 1.41022V1.41022Z" fill="url(#paint2_linear_1037_19689)" stroke="url(#paint3_linear_1037_19689)" stroke-width="0.2" stroke-miterlimit="22.9256"/>
<defs>
<linearGradient id="paint0_linear_1037_19689" x1="140.355" y1="4.99536" x2="140.356" y2="150.573" gradientUnits="userSpaceOnUse">
<stop stop-color="#B300FF"/>
<stop offset="1" stop-color="#7700FF"/>
</linearGradient>
<linearGradient id="paint1_linear_1037_19689" x1="140.355" y1="4.99536" x2="140.356" y2="150.573" gradientUnits="userSpaceOnUse">
<stop stop-color="#B300FF"/>
<stop offset="1" stop-color="#7700FF"/>
</linearGradient>
<linearGradient id="paint2_linear_1037_19689" x1="41.9442" y1="1" x2="41.9442" y2="54.3333" gradientUnits="userSpaceOnUse">
<stop stop-color="#FF5D0E"/>
<stop offset="1" stop-color="#FFC600"/>
</linearGradient>
<linearGradient id="paint3_linear_1037_19689" x1="41.9442" y1="1" x2="41.9442" y2="54.3333" gradientUnits="userSpaceOnUse">
<stop stop-color="#FF5D0E"/>
<stop offset="1" stop-color="#FFC600"/>
</linearGradient>
</defs>
</svg>
